<?xml version="1.0" encoding="UTF-8" standalone="no"?>
<svg
   xmlns:dc="http://purl.org/dc/elements/1.1/"
   xmlns:cc="http://creativecommons.org/ns#"
   xmlns:rdf="http://www.w3.org/1999/02/22-rdf-syntax-ns#"
   xmlns:svg="http://www.w3.org/2000/svg"
   xmlns="http://www.w3.org/2000/svg"
   xmlns:sodipodi="http://sodipodi.sourceforge.net/DTD/sodipodi-0.dtd"
   xmlns:inkscape="http://www.inkscape.org/namespaces/inkscape"
   inkscape:version="1.0.2 (e86c870879, 2021-01-15, custom)"
   id="svg8"
   version="1.1"
   viewBox="0 0 1280 720"
   height="720"
   width="1280"
   sodipodi:docname="share.svg">
  <defs
     id="defs2" />
  <sodipodi:namedview
     inkscape:showpageshadow="false"
     units="px"
     showgrid="false"
     inkscape:document-rotation="0"
     inkscape:current-layer="layer1"
     inkscape:document-units="px"
     inkscape:cy="560"
     inkscape:cx="400"
     inkscape:zoom="0.35"
     inkscape:pageshadow="2"
     inkscape:pageopacity="0.0"
     borderopacity="1.0"
     bordercolor="#666666"
     pagecolor="#ffffff"
     id="base"
     inkscape:window-width="2560"
     inkscape:window-height="1017"
     inkscape:window-x="2728"
     inkscape:window-y="-8"
     inkscape:window-maximized="1" />
  <metadata
     id="metadata5">
    <rdf:RDF>
      <cc:Work
         rdf:about="">
        <dc:format>image/svg+xml</dc:format>
        <dc:type
           rdf:resource="http://purl.org/dc/dcmitype/StillImage" />
        <dc:title></dc:title>
      </cc:Work>
    </rdf:RDF>
  </metadata>
  <g
     id="layer1"
     inkscape:groupmode="layer"
     inkscape:label="Layer 1">
    <g
       id="g1506"
       transform="matrix(2.7967324,0,0,2.7951968,-2492.3403,-534.46297)"
       style="stroke-width:0.357658">
      <path
         d="m 1107.0635,227.69019 c -1.8944,0 -3.4194,1.5249 -3.4194,3.41905 v 2.27936 c 0,1.89415 1.525,3.41905 3.4194,3.41905 h 8.3772 v 4.67225 a 85.486373,85.476165 0 0 0 -80.9271,85.35373 85.486373,85.476165 0 0 0 85.4864,85.47617 85.486373,85.476165 0 0 0 85.4864,-85.47617 85.486373,85.476165 0 0 0 -80.9271,-85.35373 v -4.67225 h 8.3772 c 1.8944,0 3.4194,-1.5249 3.4194,-3.41905 v -2.27936 c 0,-1.89415 -1.525,-3.41905 -3.4194,-3.41905 z"
         style="fill:none;stroke:#000000;stroke-width:0.715317;stroke-linecap:round;stroke-linejoin:round;stroke-miterlimit:4;stroke-dasharray:none;paint-order:fill markers stroke"
         id="path842"
         class="outer-border" />
      <path
         id="path856"
         style="fill:none;stroke:#000000;stroke-width:0.715317;stroke-linecap:round;stroke-linejoin:round;stroke-miterlimit:4;stroke-dasharray:none;paint-order:fill markers stroke"
         d="m 1085,324.99975 a 35.000153,34.995975 0 0 1 -2e-4,-0.0864 35.000153,34.995975 0 0 1 34.9513,-34.99595"
         class="inner-circle" />
      <path
         id="path847"
         style="fill:none;stroke:#000000;stroke-width:0.715317;stroke-linecap:round;stroke-linejoin:round;stroke-miterlimit:4;stroke-dasharray:none;paint-order:fill markers stroke"
         d="m 1155,324.81094 a 35.000153,34.995975 0 0 1 2e-4,0.10238 A 35.000153,34.995975 0 0 1 1120,359.90928"
         class="inner-circle" />
      <path
         d="m 1120,386.66466 v 11.4391"
         style="fill:none;stroke:#000000;stroke-width:0.715317;stroke-linecap:round;stroke-linejoin:round;stroke-miterlimit:4;stroke-dasharray:none;stroke-opacity:1"
         id="path858"
         class="tick" />
      <path
         d="m 1058.4499,325.12189 h -11.4405"
         style="fill:none;stroke:#000000;stroke-width:0.715317;stroke-linecap:round;stroke-linejoin:round;stroke-miterlimit:4;stroke-dasharray:none;stroke-opacity:1"
         id="path860"
         class="tick" />
      <path
         id="rect839"
         style="fill:none;stroke:#000000;stroke-width:0.715317;stroke-linecap:round;stroke-linejoin:round;paint-order:fill markers stroke"
         d="m 1176.2958,262.50897 3.1699,-3.16996 c 1.9587,-1.95868 5.1124,-1.95868 7.0711,0 v 0 l 1.591,1.59099 c 1.9587,1.95869 1.9587,5.11239 0,7.07107 l -3.2149,3.21488"
         class="outer-border" />
      <path
         id="rect852"
         style="fill:none;stroke:#000000;stroke-width:0.715317;stroke-linecap:round;stroke-linejoin:round;paint-order:fill markers stroke"
         d="m 1119.9272,254.10315 v 70.6584 h 69.8202 a 70.721564,70.716923 0 0 0 -69.8202,-70.6584 z"
         class="triangle-large" />
      <path
         style="fill:none;stroke:#000000;stroke-width:0.357658px;stroke-linecap:butt;stroke-linejoin:miter;stroke-opacity:1"
         d="m 1069,273.99999 6,6"
         id="path863"
         class="tick-small" />
      <path
         style="fill:none;stroke:#000000;stroke-width:0.357658px;stroke-linecap:butt;stroke-linejoin:miter;stroke-opacity:1"
         d="m 1070,374.99999 5,-5"
         id="path865"
         class="tick-small" />
      <path
         style="fill:none;stroke:#000000;stroke-width:0.357658px;stroke-linecap:butt;stroke-linejoin:miter;stroke-opacity:1"
         d="m 1165,369.99999 5,5"
         id="path867"
         class="tick-small" />
      <path
         id="path840"
         style="fill:none;stroke:#000000;stroke-width:0.715317;stroke-linecap:round;stroke-linejoin:round;paint-order:fill markers stroke"
         d="m 1120,374.69842 v -49.69843 h -49.1089 A 49.742858,49.739593 0 0 0 1120,374.69842 Z"
         class="triangle-small" />
      <path
         id="rect838"
         style="fill:#464646;stroke-width:3.57658;stroke-linecap:round;stroke-linejoin:round;paint-order:fill markers stroke"
         d="m 1120,321.91333 c 1.662,0 3,1.338 3,3 0,1.662 -1.338,3 -3,3 -1.662,0 -3,-1.338 -3,-3 0,-1.662 1.338,-3 3,-3 z"
         class="center" />
    </g>
  </g>
</svg>
