<?xml version="1.0" encoding="UTF-8" standalone="no"?>
<svg
   xmlns:dc="http://purl.org/dc/elements/1.1/"
   xmlns:cc="http://creativecommons.org/ns#"
   xmlns:rdf="http://www.w3.org/1999/02/22-rdf-syntax-ns#"
   xmlns:svg="http://www.w3.org/2000/svg"
   xmlns="http://www.w3.org/2000/svg"
   xmlns:sodipodi="http://sodipodi.sourceforge.net/DTD/sodipodi-0.dtd"
   xmlns:inkscape="http://www.inkscape.org/namespaces/inkscape"
   inkscape:version="1.0.1 (3bc2e813f5, 2020-09-07)"
   id="svg8"
   version="1.1"
   viewBox="0 0 60 60"
   height="60"
   width="60"
   sodipodi:docname="stopwatch_fav.svg"
   inkscape:export-filename="C:\Users\barto\Documents\Development\bpd_dev\bpd-stopwatch-app\static\images\favicon\favicon_196.png"
   inkscape:export-xdpi="313.60001"
   inkscape:export-ydpi="313.60001">
  <defs
     id="defs2" />
  <sodipodi:namedview
     inkscape:showpageshadow="false"
     units="px"
     showgrid="true"
     inkscape:document-rotation="0"
     inkscape:current-layer="svg8"
     inkscape:document-units="px"
     inkscape:cy="16.25259"
     inkscape:cx="30.319037"
     inkscape:zoom="7.9999999"
     inkscape:pageshadow="2"
     inkscape:pageopacity="0"
     borderopacity="1.0"
     bordercolor="#666666"
     pagecolor="#303030"
     id="base"
     inkscape:snap-global="false"
     inkscape:window-width="2560"
     inkscape:window-height="1017"
     inkscape:window-x="2728"
     inkscape:window-y="-8"
     inkscape:window-maximized="1">
    <inkscape:grid
       type="xygrid"
       id="grid830" />
  </sodipodi:namedview>
  <metadata
     id="metadata5">
    <rdf:RDF>
      <cc:Work
         rdf:about="">
        <dc:format>image/svg+xml</dc:format>
        <dc:type
           rdf:resource="http://purl.org/dc/dcmitype/StillImage" />
        <dc:title></dc:title>
      </cc:Work>
    </rdf:RDF>
  </metadata>
  <path
     d="M 58.5,29.999997 A 28.500001,28.499996 0 0 1 30.000004,58.499999 28.500001,28.499996 0 0 1 1.5000001,29.999997 28.500001,28.499996 0 0 1 30.000004,1.5000006 28.500001,28.499996 0 0 1 58.5,29.999997"
     style="fill:#ffffff;stroke:#eeeeee;stroke-width:1;stroke-linecap:round;stroke-linejoin:round;stroke-miterlimit:4;stroke-dasharray:none;paint-order:fill markers stroke;stroke-opacity:1;fill-opacity:1"
     id="path839"
     class="inner-border" />
  <path
     d="M 43.000003,29.999997 A 13.000004,13.000001 0 0 1 30.000002,43.000002 13.000004,13.000001 0 0 1 16.999997,29.999997 a 13.000004,13.000001 0 0 1 13.000005,-13 13.000004,13.000001 0 0 1 13.000001,13"
     style="fill:none;stroke:#000000;stroke-width:0.999995;stroke-linecap:round;stroke-linejoin:round;stroke-miterlimit:4;stroke-dasharray:none;paint-order:fill markers stroke"
     id="path856"
     class="inner-border" />
  <g
     id="g849">
    <path
       d="m 30,45.587197 v 2.835816"
       style="fill:none;stroke:#000000;stroke-width:1;stroke-linecap:round;stroke-linejoin:round;stroke-miterlimit:4;stroke-dasharray:none;stroke-opacity:1"
       id="path858"
       class="tick" />
    <path
       d="m 30,12.237801 -1e-6,2.835817"
       style="fill:none;stroke:#000000;stroke-width:1;stroke-linecap:round;stroke-linejoin:round;stroke-miterlimit:4;stroke-dasharray:none;stroke-opacity:1"
       id="path873"
       class="tick" />
  </g>
  <g
     id="g845">
    <path
       d="M 14.67007,30 H 11.841275"
       style="fill:none;stroke:#000000;stroke-width:1;stroke-linecap:round;stroke-linejoin:round;stroke-miterlimit:4;stroke-dasharray:none;stroke-opacity:1"
       id="path860"
       class="tick" />
    <path
       d="M 47.936894,30 H 45.108096"
       style="fill:none;stroke:#000000;stroke-width:1;stroke-linecap:round;stroke-linejoin:round;stroke-miterlimit:4;stroke-dasharray:none;stroke-opacity:1"
       id="path867"
       class="tick" />
  </g>
  <path
     sodipodi:nodetypes="cc"
     id="path878"
     d="m 29.977473,20.112942 v 9.62018"
     style="fill:none;stroke:#000000;stroke-width:1;stroke-linecap:round;stroke-linejoin:round;stroke-miterlimit:4;stroke-dasharray:none;stroke-opacity:1"
     class="minutes" />
  <path
     inkscape:transform-center-x="-2.71003"
     inkscape:transform-center-y="2.7170823"
     style="fill:none;stroke:#000000;stroke-width:1;stroke-linecap:round;stroke-linejoin:round;stroke-miterlimit:4;stroke-dasharray:none;stroke-opacity:1"
     d="M 34.975283,34.96254 30.136099,30.232925"
     id="hours"
     class="hours"
     sodipodi:nodetypes="cc" />
  <path
     id="rect838"
     style="fill:#464646;stroke-width:10;stroke-linecap:round;stroke-linejoin:round;paint-order:fill markers stroke"
     d="m 29.999999,28.662534 c 0.739031,0 1.333998,0.596508 1.333998,1.337473 0,0.740948 -0.594967,1.337456 -1.333998,1.337456 -0.739035,0 -1.333998,-0.596508 -1.333998,-1.337456 0,-0.740965 0.594963,-1.337473 1.333998,-1.337473 z"
     class="center" />
  <path
     d="M 52.500005,29.999997 A 22.500007,22.500001 0 0 1 30.000004,52.500004 22.500007,22.500001 0 0 1 7.4999955,29.999997 22.500007,22.500001 0 0 1 30.000004,7.4999965 22.500007,22.500001 0 0 1 52.500005,29.999997"
     style="fill:none;stroke:#000000;stroke-width:0.999994;stroke-linecap:round;stroke-linejoin:round;stroke-miterlimit:4;stroke-dasharray:none;paint-order:fill markers stroke"
     id="path841"
     class="inner-border" />
</svg>
