<?xml version="1.0" encoding="UTF-8" standalone="no"?>
<svg
   xmlns:dc="http://purl.org/dc/elements/1.1/"
   xmlns:cc="http://creativecommons.org/ns#"
   xmlns:rdf="http://www.w3.org/1999/02/22-rdf-syntax-ns#"
   xmlns:svg="http://www.w3.org/2000/svg"
   xmlns="http://www.w3.org/2000/svg"
   xmlns:sodipodi="http://sodipodi.sourceforge.net/DTD/sodipodi-0.dtd"
   xmlns:inkscape="http://www.inkscape.org/namespaces/inkscape"
   inkscape:version="1.0.2 (e86c870879, 2021-01-15, custom)"
   id="svg8"
   version="1.1"
   viewBox="0 0 200 200"
   height="200"
   width="200"
   sodipodi:docname="stopwatch_7.svg">
  <defs
     id="defs2" />
  <sodipodi:namedview
     inkscape:showpageshadow="false"
     units="px"
     showgrid="true"
     inkscape:document-rotation="0"
     inkscape:current-layer="svg8"
     inkscape:document-units="px"
     inkscape:cy="118.71581"
     inkscape:cx="253.499"
     inkscape:zoom="2.8284272"
     inkscape:pageshadow="2"
     inkscape:pageopacity="0.0"
     borderopacity="1.0"
     bordercolor="#666666"
     pagecolor="#ffffff"
     id="base"
     inkscape:snap-global="true"
     inkscape:window-width="2498"
     inkscape:window-height="1058"
     inkscape:window-x="2791"
     inkscape:window-y="-6"
     inkscape:window-maximized="1">
    <inkscape:grid
       type="xygrid"
       id="grid830" />
  </sodipodi:namedview>
  <metadata
     id="metadata5">
    <rdf:RDF>
      <cc:Work
         rdf:about="">
        <dc:format>image/svg+xml</dc:format>
        <dc:type
           rdf:resource="http://purl.org/dc/dcmitype/StillImage" />
        <dc:title />
      </cc:Work>
    </rdf:RDF>
  </metadata>
  <path
     d="m 87.063507,7.6902003 c -1.894378,0 -3.419455,1.5248948 -3.419455,3.4190467 v 2.279364 c 0,1.894152 1.525077,3.419046 3.419455,3.419046 h 8.377218 v 4.672252 a 85.486373,85.476165 0 0 0 -80.927099,85.353731 85.486373,85.476165 0 0 0 85.486373,85.47617 85.486373,85.476165 0 0 0 85.486371,-85.47617 85.486373,85.476165 0 0 0 -80.9271,-85.353731 v -4.672252 h 8.37722 c 1.89437,0 3.41945,-1.524894 3.41945,-3.419046 v -2.279364 c 0,-1.8941519 -1.52508,-3.4190467 -3.41945,-3.4190467 z"
     style="fill:none;stroke:#000000;stroke-width:2;stroke-linecap:round;stroke-linejoin:round;stroke-miterlimit:4;stroke-dasharray:none;paint-order:fill markers stroke"
     id="path842"
     class="outer-border" />
  <path
     id="path856"
     style="fill:none;stroke:#000000;stroke-width:2;stroke-linecap:round;stroke-linejoin:round;stroke-miterlimit:4;stroke-dasharray:none;paint-order:fill markers stroke"
     d="M 64.999953 104.99976 A 35.000153 34.995975 0 0 1 64.999846 104.91333 A 35.000153 34.995975 0 0 1 99.951128 69.917384 "
     class="inner-circle" />
  <path
     id="path847"
     style="fill:none;stroke:#000000;stroke-width:2;stroke-linecap:round;stroke-linejoin:round;stroke-miterlimit:4;stroke-dasharray:none;paint-order:fill markers stroke"
     d="M 135 104.81095 A 35.000153 34.995975 0 0 1 135.00015 104.91333 A 35.000153 34.995975 0 0 1 99.999996 139.90929 A 35.000153 34.995975 0 0 1 99.999996 139.90929 "
     class="inner-circle" />
  <path
     d="m 99.999999,166.66467 v 11.4391"
     style="fill:none;stroke:#000000;stroke-width:2;stroke-linecap:round;stroke-linejoin:round;stroke-miterlimit:4;stroke-dasharray:none;stroke-opacity:1"
     id="path858"
     class="tick" />
  <path
     d="M 38.449882,105.1219 H 27.00941"
     style="fill:none;stroke:#000000;stroke-width:2;stroke-linecap:round;stroke-linejoin:round;stroke-miterlimit:4;stroke-dasharray:none;stroke-opacity:1"
     id="path860"
     class="tick" />
  <path
     id="rect839"
     style="fill:none;stroke:#000000;stroke-width:2;stroke-linecap:round;stroke-linejoin:round;paint-order:fill markers stroke"
     d="M 156.29577 42.508981 L 159.46573 39.339024 C 161.42441 37.380338 164.57811 37.380338 166.53679 39.339024 L 166.53679 39.339024 L 168.12778 40.930014 C 170.08647 42.8887 170.08647 46.042396 168.12778 48.001082 L 164.91291 51.215962 "
     class="outer-border" />
  <path
     id="rect852"
     style="fill:none;stroke:#000000;stroke-width:2;stroke-linecap:round;stroke-linejoin:round;paint-order:fill markers stroke"
     d="M 99.927164,34.103162 V 104.76156 H 169.74738 A 70.721564,70.716923 0 0 0 99.927164,34.103162 Z"
     class="triangle-large" />
  <path
     style="fill:none;stroke:#000000;stroke-width:1px;stroke-linecap:butt;stroke-linejoin:miter;stroke-opacity:1"
     d="M 49,54.000001 55,60"
     id="path863"
     class="tick-small" />
  <path
     style="fill:none;stroke:#000000;stroke-width:1px;stroke-linecap:butt;stroke-linejoin:miter;stroke-opacity:1"
     d="m 50,155 5,-5"
     id="path865"
     class="tick-small" />
  <path
     style="fill:none;stroke:#000000;stroke-width:1px;stroke-linecap:butt;stroke-linejoin:miter;stroke-opacity:1"
     d="m 145,150 5,5"
     id="path867"
     class="tick-small" />
  <path
     id="path840"
     style="fill:none;stroke:#000000;stroke-width:2;stroke-linecap:round;stroke-linejoin:round;paint-order:fill markers stroke"
     d="M 100,154.69843 V 105 H 50.89112 A 49.742858,49.739593 0 0 0 100,154.69843 Z"
     class="triangle-small" />
  <path
     id="rect838"
     style="fill:#464646;stroke-width:10;stroke-linecap:round;stroke-linejoin:round;paint-order:fill markers stroke"
     d="m 100,101.91334 c 1.662,0 3,1.338 3,3 0,1.662 -1.338,3 -3,3 -1.662,0 -3,-1.338 -3,-3 0,-1.662 1.338,-3 3,-3 z"
     class="center" />
</svg>
