<?xml version="1.0" encoding="UTF-8" standalone="no"?>
<svg
   xmlns:dc="http://purl.org/dc/elements/1.1/"
   xmlns:cc="http://creativecommons.org/ns#"
   xmlns:rdf="http://www.w3.org/1999/02/22-rdf-syntax-ns#"
   xmlns:svg="http://www.w3.org/2000/svg"
   xmlns="http://www.w3.org/2000/svg"
   xmlns:sodipodi="http://sodipodi.sourceforge.net/DTD/sodipodi-0.dtd"
   xmlns:inkscape="http://www.inkscape.org/namespaces/inkscape"
   sodipodi:docname="stopwatch_small_1.svg"
   width="20"
   height="20"
   viewBox="0 0 20 20"
   version="1.1"
   id="svg8"
   inkscape:version="1.0.2 (e86c870879, 2021-01-15, custom)">
  <defs
     id="defs2" />
  <sodipodi:namedview
     inkscape:window-maximized="1"
     inkscape:window-y="-8"
     inkscape:window-x="2790"
     inkscape:window-height="1057"
     inkscape:window-width="2498"
     inkscape:snap-global="true"
     id="base"
     pagecolor="#ffffff"
     bordercolor="#666666"
     borderopacity="1.0"
     inkscape:pageopacity="0.0"
     inkscape:pageshadow="2"
     inkscape:zoom="22.627417"
     inkscape:cx="23.778335"
     inkscape:cy="12.625322"
     inkscape:document-units="px"
     inkscape:current-layer="svg8"
     inkscape:document-rotation="0"
     showgrid="true"
     units="px"
     inkscape:showpageshadow="false">
    <inkscape:grid
       id="grid830"
       type="xygrid" />
  </sodipodi:namedview>
  <metadata
     id="metadata5">
    <rdf:RDF>
      <cc:Work
         rdf:about="">
        <dc:format>image/svg+xml</dc:format>
        <dc:type
           rdf:resource="http://purl.org/dc/dcmitype/StillImage" />
        <dc:title></dc:title>
      </cc:Work>
    </rdf:RDF>
  </metadata>
  <path
     d="m 19,10 a 9,9 0 0 1 -9,9 9,9 0 0 1 -9,-9 9,9 0 0 1 9,-9 9,9 0 0 1 9,9 z"
     style="opacity:1;fill:none;stroke:#000000;stroke-width:1;stroke-linecap:round;stroke-linejoin:round;stroke-miterlimit:4;stroke-dasharray:none;stroke-opacity:1;paint-order:fill markers stroke"
     id="path1438" />
  <path
     id="path836"
     style="opacity:1;fill:none;stroke:#000000;stroke-width:1;stroke-linecap:round;stroke-linejoin:round;stroke-miterlimit:4;stroke-dasharray:none;stroke-opacity:1;paint-order:fill markers stroke"
     d="M 10.03125 3 L 10.03125 10.107422 L 16.998047 10.107422 A 7 7 0 0 0 17 10 A 7 7 0 0 0 10.03125 3 z " />
  <path
     id="path847"
     style="opacity:1;fill:none;stroke:#000000;stroke-width:1;stroke-linecap:round;stroke-linejoin:round;stroke-miterlimit:4;stroke-dasharray:none;stroke-opacity:1;paint-order:fill markers stroke"
     d="M 7.5017946 10.094707 A 2.4999999 2.4999999 0 0 1 7.5000001 10 A 2.4999999 2.4999999 0 0 1 10 7.5 A 2.4999999 2.4999999 0 0 1 10.031256 7.5001954 " />
  <path
     id="path852"
     style="opacity:1;fill:none;stroke:#000000;stroke-width:1;stroke-linecap:round;stroke-linejoin:round;stroke-miterlimit:4;stroke-dasharray:none;stroke-opacity:1;paint-order:fill markers stroke"
     d="M 12.497686 10.107528 A 2.4999999 2.4999999 0 0 1 10.094628 12.498208 " />
  <path
     id="path843"
     style="opacity:1;fill:none;stroke:#000000;stroke-width:1;stroke-linecap:round;stroke-linejoin:round;stroke-miterlimit:4;stroke-dasharray:none;stroke-opacity:1;paint-order:fill markers stroke"
     d="M 10.093744,15.198121 V 10.09375 H 5.0951844 a 5.0223816,5.0272225 0 0 0 -0.00144,0.07714 5.0223816,5.0272225 0 0 0 4.9999946,5.027222 z" />
  <path
     style="fill:none;stroke:#000000;stroke-width:1px;stroke-linecap:butt;stroke-linejoin:miter;stroke-opacity:1"
     d="M 5,5 5.9375,5.90625"
     id="path857" />
  <path
     style="fill:none;stroke:#000000;stroke-width:1px;stroke-linecap:butt;stroke-linejoin:miter;stroke-opacity:1"
     d="m 14,14 0.9375,0.90625"
     id="path859" />
</svg>
